<svg width="100" height="100" viewBox="0 0 100 100" fill="none" xmlns="http://www.w3.org/2000/svg">
<rect width="100" height="100" fill="white"/>
<path opacity="0.2" d="M33.1074 57.625V71.6875C33.1074 73.1793 32.5148 74.6101 31.4599 75.665C30.405 76.7199 28.9743 77.3125 27.4824 77.3125H21.8574C20.3656 77.3125 18.9348 76.7199 17.8799 75.665C16.8251 74.6101 16.2324 73.1793 16.2324 71.6875V52H27.4824C28.9743 52 30.405 52.5926 31.4599 53.6475C32.5148 54.7024 33.1074 56.1332 33.1074 57.625ZM72.4824 52C70.9906 52 69.5598 52.5926 68.5049 53.6475C67.4501 54.7024 66.8574 56.1332 66.8574 57.625V71.6875C66.8574 73.1793 67.4501 74.6101 68.5049 75.665C69.5598 76.7199 70.9906 77.3125 72.4824 77.3125H78.1074C79.5993 77.3125 81.03 76.7199 82.0849 75.665C83.1398 74.6101 83.7324 73.1793 83.7324 71.6875V52H72.4824Z" fill="black"/>
<path d="M75.9594 26.2163C70.8515 21.0785 64.3334 17.5727 57.231 16.1431C50.1287 14.7135 42.7618 15.4244 36.0638 18.1858C29.3659 20.9472 23.6385 25.6347 19.6074 31.6545C15.5762 37.6742 13.4228 44.7551 13.4199 51.9999V71.6874C13.4199 73.9252 14.3089 76.0713 15.8912 77.6536C17.4735 79.236 19.6197 80.1249 21.8574 80.1249H27.4824C29.7202 80.1249 31.8663 79.236 33.4486 77.6536C35.031 76.0713 35.9199 73.9252 35.9199 71.6874V57.6249C35.9199 55.3871 35.031 53.241 33.4486 51.6587C31.8663 50.0764 29.7202 49.1874 27.4824 49.1874H19.1715C19.8732 41.5009 23.4228 34.3542 29.1234 29.1505C34.824 23.9469 42.2639 21.062 49.9824 21.0624H50.218C57.9043 21.0949 65.3015 23.9969 70.9595 29.1996C76.6174 34.4024 80.1283 41.5307 80.8039 49.1874H72.4824C70.2447 49.1874 68.0986 50.0764 66.5162 51.6587C64.9339 53.241 64.0449 55.3871 64.0449 57.6249V71.6874C64.0449 73.9252 64.9339 76.0713 66.5162 77.6536C68.0986 79.236 70.2447 80.1249 72.4824 80.1249H78.1074C80.3452 80.1249 82.4913 79.236 84.0736 77.6536C85.656 76.0713 86.5449 73.9252 86.5449 71.6874V51.9999C86.5632 47.2172 85.6376 42.4778 83.8212 38.0534C82.0047 33.629 79.3331 29.6065 75.9594 26.2163ZM27.4824 54.8124C28.2283 54.8124 28.9437 55.1087 29.4712 55.6362C29.9986 56.1636 30.2949 56.879 30.2949 57.6249V71.6874C30.2949 72.4333 29.9986 73.1487 29.4712 73.6762C28.9437 74.2036 28.2283 74.4999 27.4824 74.4999H21.8574C21.1115 74.4999 20.3961 74.2036 19.8687 73.6762C19.3412 73.1487 19.0449 72.4333 19.0449 71.6874V54.8124H27.4824ZM80.9199 71.6874C80.9199 72.4333 80.6236 73.1487 80.0962 73.6762C79.5687 74.2036 78.8533 74.4999 78.1074 74.4999H72.4824C71.7365 74.4999 71.0211 74.2036 70.4937 73.6762C69.9662 73.1487 69.6699 72.4333 69.6699 71.6874V57.6249C69.6699 56.879 69.9662 56.1636 70.4937 55.6362C71.0211 55.1087 71.7365 54.8124 72.4824 54.8124H80.9199V71.6874Z" fill="black"/>
</svg>
